<svg width="1490" height="9468" viewBox="0 0 1490 9468" fill="none" xmlns="http://www.w3.org/2000/svg">
<g filter="url(#filter0_d_148_7)">
<path d="M774.5 0.566243L760.066 15L774.5 29.4338L788.934 15L774.5 0.566243ZM1341.5 1766H1344V1763.5H1341.5V1766ZM1341.5 3041V3043.5H1344V3041H1341.5ZM6.5 3041V3038.5H4V3041H6.5ZM6.5 4438H4V4440.5H6.5V4438ZM762.5 4438H765V4435.5H762.5V4438ZM762.5 5461H760V5463.5H762.5V5461ZM1483.5 5461H1486V5458.5H1483.5V5461ZM1483.5 6249.5V6252H1486V6249.5H1483.5ZM872 6249.5V6247H869.5V6249.5H872ZM872 7020V7022.5H874.5V7020H872ZM101 7020V7017.5H98.5V7020H101ZM101 7988.5H98.5V7991H101V7988.5ZM1167.5 7988.5H1170V7986H1167.5V7988.5ZM1167.5 8642.5V8645H1170V8642.5H1167.5ZM87.5 8642.5V8640H85V8642.5H87.5ZM87.5 9445H85V9447.5H87.5V9445ZM368.934 9445L354.5 9430.57L340.066 9445L354.5 9459.43L368.934 9445ZM774.5 718.5V721H777V718.5H774.5ZM64.5 718.5V716H62V718.5H64.5ZM64.5 1766H62V1768.5H64.5V1766ZM354.5 9442.5H349.365V9447.5H354.5V9442.5ZM339.096 9442.5H328.827V9447.5H339.096V9442.5ZM318.558 9442.5H308.288V9447.5H318.558V9442.5ZM298.019 9442.5H287.75V9447.5H298.019V9442.5ZM277.481 9442.5H267.212V9447.5H277.481V9442.5ZM256.942 9442.5H246.673V9447.5H256.942V9442.5ZM236.404 9442.5H226.135V9447.5H236.404V9442.5ZM215.865 9442.5H205.596V9447.5H215.865V9442.5ZM195.327 9442.5H185.058V9447.5H195.327V9442.5ZM174.788 9442.5H164.519V9447.5H174.788V9442.5ZM154.25 9442.5H143.981V9447.5H154.25V9442.5ZM133.712 9442.5H123.442V9447.5H133.712V9442.5ZM113.173 9442.5H102.904V9447.5H113.173V9442.5ZM92.6347 9442.5H87.5V9447.5H92.6347V9442.5ZM90 9445V9440.09H85V9445H90ZM90 9430.27V9420.45H85V9430.27H90ZM90 9410.62V9400.8H85V9410.62H90ZM90 9390.98V9381.16H85V9390.98H90ZM90 9371.34V9361.52H85V9371.34H90ZM90 9351.7V9341.88H85V9351.7H90ZM90 9332.05V9322.23H85V9332.05H90ZM90 9312.41V9302.59H85V9312.41H90ZM90 9292.77V9282.95H85V9292.77H90ZM90 9273.13V9263.3H85V9273.13H90ZM90 9253.48V9243.66H85V9253.48H90ZM90 9233.84V9224.02H85V9233.84H90ZM90 9214.2V9204.38H85V9214.2H90ZM90 9194.55V9184.73H85V9194.55H90ZM90 9174.91V9170H85V9174.91H90ZM90 9170V9164.94H85V9170H90ZM90 9154.83V9144.72H85V9154.83H90ZM90 9134.6V9124.49H85V9134.6H90ZM90 9114.38V9104.26H85V9114.38H90ZM90 9094.15V9084.03H85V9094.15H90ZM90 9073.92V9063.81H85V9073.92H90ZM90 9053.69V9043.58H85V9053.69H90ZM90 9033.47V9023.35H85V9033.47H90ZM90 9013.24V9003.13H85V9013.24H90ZM90 8993.01V8982.9H85V8993.01H90ZM90 8972.78V8962.67H85V8972.78H90ZM90 8952.56V8947.5H85V8952.56H90ZM90 8947.5V8942.74H85V8947.5H90ZM90 8933.21V8923.68H85V8933.21H90ZM90 8914.15V8904.62H85V8914.15H90ZM90 8895.1V8885.57H85V8895.1H90ZM90 8876.04V8866.51H85V8876.04H90ZM90 8856.99V8847.46H85V8856.99H90ZM90 8837.93V8828.4H85V8837.93H90ZM90 8818.88V8809.35H85V8818.88H90ZM90 8799.82V8790.29H85V8799.82H90ZM90 8780.76V8776H85V8780.76H90ZM90 8776V8771.23H85V8776H90ZM90 8761.7V8752.16H85V8761.7H90ZM90 8742.62V8733.09H85V8742.62H90ZM90 8723.55V8714.02H85V8723.55H90ZM90 8704.48V8694.95H85V8704.48H90ZM90 8685.41V8675.88H85V8685.41H90ZM90 8666.34V8656.8H85V8666.34H90ZM90 8647.27V8642.5H85V8647.27H90ZM87.5 8645H92.4453V8640H87.5V8645ZM102.336 8645H112.227V8640H102.336V8645ZM122.117 8645H132.008V8640H122.117V8645ZM141.898 8645H151.789V8640H141.898V8645ZM161.68 8645H171.57V8640H161.68V8645ZM181.461 8645H191.352V8640H181.461V8645ZM201.242 8645H211.133V8640H201.242V8645ZM221.023 8645H230.914V8640H221.023V8645ZM240.805 8645H250.695V8640H240.805V8645ZM260.586 8645H270.477V8640H260.586V8645ZM280.367 8645H290.258V8640H280.367V8645ZM300.148 8645H310.039V8640H300.148V8645ZM319.93 8645H329.82V8640H319.93V8645ZM339.711 8645H349.602V8640H339.711V8645ZM359.492 8645H369.383V8640H359.492V8645ZM379.273 8645H389.164V8640H379.273V8645ZM399.055 8645H408.945V8640H399.055V8645ZM418.836 8645H428.727V8640H418.836V8645ZM438.617 8645H448.508V8640H438.617V8645ZM458.398 8645H468.289V8640H458.398V8645ZM478.18 8645H488.07V8640H478.18V8645ZM497.961 8645H507.852V8640H497.961V8645ZM517.742 8645H527.633V8640H517.742V8645ZM537.523 8645H547.414V8640H537.523V8645ZM557.305 8645H567.195V8640H557.305V8645ZM577.086 8645H586.977V8640H577.086V8645ZM596.867 8645H606.758V8640H596.867V8645ZM616.648 8645H626.539V8640H616.648V8645ZM636.43 8645H646.32V8640H636.43V8645ZM656.211 8645H666.102V8640H656.211V8645ZM675.992 8645H685.883V8640H675.992V8645ZM695.773 8645H705.664V8640H695.773V8645ZM715.555 8645H720.5V8640H715.555V8645ZM720.5 8645H725.58V8640H720.5V8645ZM735.739 8645H745.898V8640H735.739V8645ZM756.057 8645H766.216V8640H756.057V8645ZM776.375 8645H786.534V8640H776.375V8645ZM796.693 8645H806.852V8640H796.693V8645ZM817.011 8645H827.17V8640H817.011V8645ZM837.33 8645H847.489V8640H837.33V8645ZM857.648 8645H867.807V8640H857.648V8645ZM877.966 8645H888.125V8640H877.966V8645ZM898.284 8645H908.443V8640H898.284V8645ZM918.602 8645H928.761V8640H918.602V8645ZM938.92 8645H949.08V8640H938.92V8645ZM959.239 8645H969.398V8640H959.239V8645ZM979.557 8645H989.716V8640H979.557V8645ZM999.875 8645H1010.03V8640H999.875V8645ZM1020.19 8645H1030.35V8640H1020.19V8645ZM1040.51 8645H1050.67V8640H1040.51V8645ZM1060.83 8645H1070.99V8640H1060.83V8645ZM1081.15 8645H1091.31V8640H1081.15V8645ZM1101.47 8645H1111.62V8640H1101.47V8645ZM1121.78 8645H1131.94V8640H1121.78V8645ZM1142.1 8645H1152.26V8640H1142.1V8645ZM1162.42 8645H1167.5V8640H1162.42V8645ZM1170 8642.5V8637.55H1165V8642.5H1170ZM1170 8627.64V8617.73H1165V8627.64H1170ZM1170 8607.82V8597.91H1165V8607.82H1170ZM1170 8588V8578.09H1165V8588H1170ZM1170 8568.18V8558.27H1165V8568.18H1170ZM1170 8548.36V8538.45H1165V8548.36H1170ZM1170 8528.55V8518.64H1165V8528.55H1170ZM1170 8508.73V8498.82H1165V8508.73H1170ZM1170 8488.91V8479H1165V8488.91H1170ZM1170 8469.09V8459.18H1165V8469.09H1170ZM1170 8449.27V8439.36H1165V8449.27H1170ZM1170 8429.45V8419.55H1165V8429.45H1170ZM1170 8409.64V8399.73H1165V8409.64H1170ZM1170 8389.82V8379.91H1165V8389.82H1170ZM1170 8370V8360.09H1165V8370H1170ZM1170 8350.18V8340.27H1165V8350.18H1170ZM1170 8330.36V8320.45H1165V8330.36H1170ZM1170 8310.55V8300.64H1165V8310.55H1170ZM1170 8290.73V8280.82H1165V8290.73H1170ZM1170 8270.91V8261H1165V8270.91H1170ZM1170 8251.09V8241.18H1165V8251.09H1170ZM1170 8231.27V8221.36H1165V8231.27H1170ZM1170 8211.45V8201.55H1165V8211.45H1170ZM1170 8191.64V8181.73H1165V8191.64H1170ZM1170 8171.82V8161.91H1165V8171.82H1170ZM1170 8152V8142.09H1165V8152H1170ZM1170 8132.18V8122.27H1165V8132.18H1170ZM1170 8112.36V8102.45H1165V8112.36H1170ZM1170 8092.55V8082.64H1165V8092.55H1170ZM1170 8072.73V8062.82H1165V8072.73H1170ZM1170 8052.91V8043H1165V8052.91H1170ZM1170 8033.09V8023.18H1165V8033.09H1170ZM1170 8013.27V8003.36H1165V8013.27H1170ZM1170 7993.45V7988.5H1165V7993.45H1170ZM1167.5 7986H1162.42V7991H1167.5V7986ZM1152.26 7986H1142.1V7991H1152.26V7986ZM1131.94 7986H1121.78V7991H1131.94V7986ZM1111.62 7986H1101.47V7991H1111.62V7986ZM1091.31 7986H1081.15V7991H1091.31V7986ZM1070.99 7986H1060.83V7991H1070.99V7986ZM1050.67 7986H1040.51V7991H1050.67V7986ZM1030.35 7986H1020.19V7991H1030.35V7986ZM1010.03 7986H999.875V7991H1010.03V7986ZM989.716 7986H979.557V7991H989.716V7986ZM969.398 7986H959.239V7991H969.398V7986ZM949.08 7986H938.92V7991H949.08V7986ZM928.761 7986H918.602V7991H928.761V7986ZM908.443 7986H898.284V7991H908.443V7986ZM888.125 7986H877.966V7991H888.125V7986ZM867.807 7986H857.648V7991H867.807V7986ZM847.489 7986H837.33V7991H847.489V7986ZM827.171 7986H817.011V7991H827.171V7986ZM806.852 7986H796.693V7991H806.852V7986ZM786.534 7986H776.375V7991H786.534V7986ZM766.216 7986H756.057V7991H766.216V7986ZM745.898 7986H735.739V7991H745.898V7986ZM725.58 7986H720.5V7991H725.58V7986ZM720.5 7986H715.526V7991H720.5V7986ZM705.579 7986H695.632V7991H705.579V7986ZM685.684 7986H675.737V7991H685.684V7986ZM665.789 7986H655.842V7991H665.789V7986ZM645.895 7986H635.947V7991H645.895V7986ZM626 7986H616.053V7991H626V7986ZM606.105 7986H596.158V7991H606.105V7986ZM586.21 7986H576.263V7991H586.21V7986ZM566.316 7986H556.368V7991H566.316V7986ZM546.421 7986H536.474V7991H546.421V7986ZM526.526 7986H516.579V7991H526.526V7986ZM506.632 7986H496.684V7991H506.632V7986ZM486.737 7986H476.789V7991H486.737V7986ZM466.842 7986H456.895V7991H466.842V7986ZM446.947 7986H437V7991H446.947V7986ZM427.053 7986H417.105V7991H427.053V7986ZM407.158 7986H397.211V7991H407.158V7986ZM387.263 7986H377.316V7991H387.263V7986ZM367.368 7986H357.421V7991H367.368V7986ZM347.474 7986H342.5V7991H347.474V7986ZM342.5 7986H337.469V7991H342.5V7986ZM327.406 7986H317.344V7991H327.406V7986ZM307.281 7986H297.219V7991H307.281V7986ZM287.156 7986H277.094V7991H287.156V7986ZM267.031 7986H256.969V7991H267.031V7986ZM246.906 7986H236.844V7991H246.906V7986ZM226.781 7986H216.719V7991H226.781V7986ZM206.656 7986H196.594V7991H206.656V7986ZM186.531 7986H176.469V7991H186.531V7986ZM166.406 7986H156.344V7991H166.406V7986ZM146.281 7986H136.219V7991H146.281V7986ZM126.156 7986H116.094V7991H126.156V7986ZM106.031 7986H101V7991H106.031V7986ZM103.5 7988.5V7983.66H98.5V7988.5H103.5ZM103.5 7973.98V7964.3H98.5V7973.98H103.5ZM103.5 7954.61V7944.93H98.5V7954.61H103.5ZM103.5 7935.25V7925.57H98.5V7935.25H103.5ZM103.5 7915.89V7906.2H98.5V7915.89H103.5ZM103.5 7896.52V7886.84H98.5V7896.52H103.5ZM103.5 7877.16V7867.48H98.5V7877.16H103.5ZM103.5 7857.8V7848.11H98.5V7857.8H103.5ZM103.5 7838.43V7828.75H98.5V7838.43H103.5ZM103.5 7819.07V7809.39H98.5V7819.07H103.5ZM103.5 7799.7V7790.02H98.5V7799.7H103.5ZM103.5 7780.34V7775.5H98.5V7780.34H103.5ZM103.5 7775.5V7770.4H98.5V7775.5H103.5ZM103.5 7760.2V7750H98.5V7760.2H103.5ZM103.5 7739.8V7729.6H98.5V7739.8H103.5ZM103.5 7719.4V7709.2H98.5V7719.4H103.5ZM103.5 7699V7688.8H98.5V7699H103.5ZM103.5 7678.6V7668.4H98.5V7678.6H103.5ZM103.5 7658.2V7648H98.5V7658.2H103.5ZM103.5 7637.8V7627.6H98.5V7637.8H103.5ZM103.5 7617.4V7607.2H98.5V7617.4H103.5ZM103.5 7597V7586.8H98.5V7597H103.5ZM103.5 7576.6V7571.5H98.5V7576.6H103.5ZM103.5 7571.5V7566.25H98.5V7571.5H103.5ZM103.5 7555.75V7545.25H98.5V7555.75H103.5ZM103.5 7534.75V7524.25H98.5V7534.75H103.5ZM103.5 7513.75V7503.25H98.5V7513.75H103.5ZM103.5 7492.75V7482.25H98.5V7492.75H103.5ZM103.5 7471.75V7461.25H98.5V7471.75H103.5ZM103.5 7450.75V7440.25H98.5V7450.75H103.5ZM103.5 7429.75V7419.25H98.5V7429.75H103.5ZM103.5 7408.75V7398.25H98.5V7408.75H103.5ZM103.5 7387.75V7382.5H98.5V7387.75H103.5ZM103.5 7382.5V7377.7H98.5V7382.5H103.5ZM103.5 7368.09V7358.49H98.5V7368.09H103.5ZM103.5 7348.89V7339.28H98.5V7348.89H103.5ZM103.5 7329.68V7320.07H98.5V7329.68H103.5ZM103.5 7310.47V7300.86H98.5V7310.47H103.5ZM103.5 7291.26V7281.66H98.5V7291.26H103.5ZM103.5 7272.05V7262.45H98.5V7272.05H103.5ZM103.5 7252.84V7243.24H98.5V7252.84H103.5ZM103.5 7233.64V7224.03H98.5V7233.64H103.5ZM103.5 7214.43V7204.82H98.5V7214.43H103.5ZM103.5 7195.22V7185.61H98.5V7195.22H103.5ZM103.5 7176.01V7166.41H98.5V7176.01H103.5ZM103.5 7156.8V7152H98.5V7156.8H103.5ZM103.5 7152V7147.29H98.5V7152H103.5ZM103.5 7137.86V7128.43H98.5V7137.86H103.5ZM103.5 7119V7109.57H98.5V7119H103.5ZM103.5 7100.14V7090.71H98.5V7100.14H103.5ZM103.5 7081.29V7071.86H98.5V7081.29H103.5ZM103.5 7062.43V7053H98.5V7062.43H103.5ZM103.5 7043.57V7034.14H98.5V7043.57H103.5ZM103.5 7024.71V7020H98.5V7024.71H103.5ZM101 7022.5H106.096V7017.5H101V7022.5ZM116.287 7022.5H126.478V7017.5H116.287V7022.5ZM136.669 7022.5H146.86V7017.5H136.669V7022.5ZM157.051 7022.5H167.243V7017.5H157.051V7022.5ZM177.434 7022.5H187.625V7017.5H177.434V7022.5ZM197.816 7022.5H208.007V7017.5H197.816V7022.5ZM218.199 7022.5H228.39V7017.5H218.199V7022.5ZM238.581 7022.5H248.772V7017.5H238.581V7022.5ZM258.963 7022.5H269.154V7017.5H258.963V7022.5ZM279.346 7022.5H289.537V7017.5H279.346V7022.5ZM299.728 7022.5H309.919V7017.5H299.728V7022.5ZM320.11 7022.5H330.301V7017.5H320.11V7022.5ZM340.493 7022.5H350.684V7017.5H340.493V7022.5ZM360.875 7022.5H371.066V7017.5H360.875V7022.5ZM381.257 7022.5H391.448V7017.5H381.257V7022.5ZM401.64 7022.5H411.831V7017.5H401.64V7022.5ZM422.022 7022.5H432.213V7017.5H422.022V7022.5ZM442.404 7022.5H447.5V7017.5H442.404V7022.5ZM447.5 7022.5H452.688V7017.5H447.5V7022.5ZM463.062 7022.5H473.437V7017.5H463.062V7022.5ZM483.812 7022.5H494.188V7017.5H483.812V7022.5ZM504.563 7022.5H514.938V7017.5H504.563V7022.5ZM525.312 7022.5H535.687V7017.5H525.312V7022.5ZM546.063 7022.5H556.438V7017.5H546.063V7022.5ZM566.812 7022.5H577.187V7017.5H566.812V7022.5ZM587.562 7022.5H597.938V7017.5H587.562V7022.5ZM608.312 7022.5H618.688V7017.5H608.312V7022.5ZM629.063 7022.5H639.437V7017.5H629.063V7022.5ZM649.812 7022.5H660.188V7017.5H649.812V7022.5ZM670.562 7022.5H680.938V7017.5H670.562V7022.5ZM691.313 7022.5H696.5V7017.5H691.313V7022.5ZM696.5 7022.5H701.375V7017.5H696.5V7022.5ZM711.125 7022.5H720.875V7017.5H711.125V7022.5ZM730.625 7022.5H740.375V7017.5H730.625V7022.5ZM750.125 7022.5H759.875V7017.5H750.125V7022.5ZM769.625 7022.5H779.375V7017.5H769.625V7022.5ZM789.125 7022.5H798.875V7017.5H789.125V7022.5ZM808.625 7022.5H818.375V7017.5H808.625V7022.5ZM828.125 7022.5H837.875V7017.5H828.125V7022.5ZM847.625 7022.5H857.375V7017.5H847.625V7022.5ZM867.125 7022.5H872V7017.5H867.125V7022.5ZM874.5 7020V7015.06H869.5V7020H874.5ZM874.5 7005.18V6995.3H869.5V7005.18H874.5ZM874.5 6985.43V6975.55H869.5V6985.43H874.5ZM874.5 6965.67V6955.79H869.5V6965.67H874.5ZM874.5 6945.91V6936.04H869.5V6945.91H874.5ZM874.5 6926.16V6916.28H869.5V6926.16H874.5ZM874.5 6906.4V6896.52H869.5V6906.4H874.5ZM874.5 6886.64V6876.77H869.5V6886.64H874.5ZM874.5 6866.89V6857.01H869.5V6866.89H874.5ZM874.5 6847.13V6837.25H869.5V6847.13H874.5ZM874.5 6827.38V6817.5H869.5V6827.38H874.5ZM874.5 6807.62V6797.74H869.5V6807.62H874.5ZM874.5 6787.86V6777.98H869.5V6787.86H874.5ZM874.5 6768.11V6758.23H869.5V6768.11H874.5ZM874.5 6748.35V6738.47H869.5V6748.35H874.5ZM874.5 6728.59V6718.71H869.5V6728.59H874.5ZM874.5 6708.84V6698.96H869.5V6708.84H874.5ZM874.5 6689.08V6679.2H869.5V6689.08H874.5ZM874.5 6669.32V6659.45H869.5V6669.32H874.5ZM874.5 6649.57V6639.69H869.5V6649.57H874.5ZM874.5 6629.81V6619.93H869.5V6629.81H874.5ZM874.5 6610.05V6600.18H869.5V6610.05H874.5ZM874.5 6590.3V6580.42H869.5V6590.3H874.5ZM874.5 6570.54V6560.66H869.5V6570.54H874.5ZM874.5 6550.79V6540.91H869.5V6550.79H874.5ZM874.5 6531.03V6521.15H869.5V6531.03H874.5ZM874.5 6511.27V6501.39H869.5V6511.27H874.5ZM874.5 6491.52V6481.64H869.5V6491.52H874.5ZM874.5 6471.76V6461.88H869.5V6471.76H874.5ZM874.5 6452V6442.12H869.5V6452H874.5ZM874.5 6432.25V6422.37H869.5V6432.25H874.5ZM874.5 6412.49V6402.61H869.5V6412.49H874.5ZM874.5 6392.73V6382.86H869.5V6392.73H874.5ZM874.5 6372.98V6363.1H869.5V6372.98H874.5ZM874.5 6353.22V6343.34H869.5V6353.22H874.5ZM874.5 6333.46V6323.59H869.5V6333.46H874.5ZM874.5 6313.71V6303.83H869.5V6313.71H874.5ZM874.5 6293.95V6284.07H869.5V6293.95H874.5ZM874.5 6274.19V6264.32H869.5V6274.19H874.5ZM874.5 6254.44V6249.5H869.5V6254.44H874.5ZM872 6252H876.931V6247H872V6252ZM886.794 6252H896.657V6247H886.794V6252ZM906.52 6252H916.383V6247H906.52V6252ZM926.246 6252H936.109V6247H926.246V6252ZM945.972 6252H955.835V6247H945.972V6252ZM965.698 6252H975.56V6247H965.698V6252ZM985.423 6252H995.286V6247H985.423V6252ZM1005.15 6252H1015.01V6247H1005.15V6252ZM1024.87 6252H1034.74V6247H1024.87V6252ZM1044.6 6252H1054.46V6247H1044.6V6252ZM1064.33 6252H1074.19V6247H1064.33V6252ZM1084.05 6252H1093.92V6247H1084.05V6252ZM1103.78 6252H1113.64V6247H1103.78V6252ZM1123.5 6252H1133.37V6247H1123.5V6252ZM1143.23 6252H1153.09V6247H1143.23V6252ZM1162.96 6252H1172.82V6247H1162.96V6252ZM1182.68 6252H1192.54V6247H1182.68V6252ZM1202.41 6252H1212.27V6247H1202.41V6252ZM1222.13 6252H1232V6247H1222.13V6252ZM1241.86 6252H1251.72V6247H1241.86V6252ZM1261.58 6252H1271.45V6247H1261.58V6252ZM1281.31 6252H1291.17V6247H1281.31V6252ZM1301.04 6252H1310.9V6247H1301.04V6252ZM1320.76 6252H1330.63V6247H1320.76V6252ZM1340.49 6252H1350.35V6247H1340.49V6252ZM1360.21 6252H1370.08V6247H1360.21V6252ZM1379.94 6252H1389.8V6247H1379.94V6252ZM1399.67 6252H1409.53V6247H1399.67V6252ZM1419.39 6252H1429.25V6247H1419.39V6252ZM1439.12 6252H1448.98V6247H1439.12V6252ZM1458.84 6252H1468.71V6247H1458.84V6252ZM1478.57 6252H1483.5V6247H1478.57V6252ZM1486 6249.5V6244.56H1481V6249.5H1486ZM1486 6234.67V6224.78H1481V6234.67H1486ZM1486 6214.89V6205H1481V6214.89H1486ZM1486 6195.11V6185.22H1481V6195.11H1486ZM1486 6175.33V6165.44H1481V6175.33H1486ZM1486 6155.56V6145.67H1481V6155.56H1486ZM1486 6135.78V6125.89H1481V6135.78H1486ZM1486 6116V6106.11H1481V6116H1486ZM1486 6096.22V6086.33H1481V6096.22H1486ZM1486 6076.44V6071.5H1481V6076.44H1486ZM1486 6071.5V6066.78H1481V6071.5H1486ZM1486 6057.34V6047.91H1481V6057.34H1486ZM1486 6038.47V6029.03H1481V6038.47H1486ZM1486 6019.59V6010.16H1481V6019.59H1486ZM1486 6000.72V5991.28H1481V6000.72H1486ZM1486 5981.84V5972.41H1481V5981.84H1486ZM1486 5962.97V5953.53H1481V5962.97H1486ZM1486 5944.09V5934.66H1481V5944.09H1486ZM1486 5925.22V5920.5H1481V5925.22H1486ZM1486 5920.5V5915.36H1481V5920.5H1486ZM1486 5905.08V5894.81H1481V5905.08H1486ZM1486 5884.53V5874.25H1481V5884.53H1486ZM1486 5863.97V5853.69H1481V5863.97H1486ZM1486 5843.42V5833.14H1481V5843.42H1486ZM1486 5822.86V5812.58H1481V5822.86H1486ZM1486 5802.31V5792.03H1481V5802.31H1486ZM1486 5781.75V5771.47H1481V5781.75H1486ZM1486 5761.19V5750.92H1481V5761.19H1486ZM1486 5740.64V5735.5H1481V5740.64H1486ZM1486 5735.5V5730.6H1481V5735.5H1486ZM1486 5720.79V5710.99H1481V5720.79H1486ZM1486 5701.19V5691.38H1481V5701.19H1486ZM1486 5681.58V5671.78H1481V5681.58H1486ZM1486 5661.97V5652.17H1481V5661.97H1486ZM1486 5642.37V5632.56H1481V5642.37H1486ZM1486 5622.76V5612.96H1481V5622.76H1486ZM1486 5603.15V5593.35H1481V5603.15H1486ZM1486 5583.54V5573.74H1481V5583.54H1486ZM1486 5563.94V5554.13H1481V5563.94H1486ZM1486 5544.33V5534.53H1481V5544.33H1486ZM1486 5524.72V5514.92H1481V5524.72H1486ZM1486 5505.12V5495.31H1481V5505.12H1486ZM1486 5485.51V5475.71H1481V5485.51H1486ZM1486 5465.9V5461H1481V5465.9H1486ZM1483.5 5458.5H1478.49V5463.5H1483.5V5458.5ZM1468.48 5458.5H1458.47V5463.5H1468.48V5458.5ZM1448.45 5458.5H1438.44V5463.5H1448.45V5458.5ZM1428.42 5458.5H1418.41V5463.5H1428.42V5458.5ZM1408.4 5458.5H1398.38V5463.5H1408.4V5458.5ZM1388.37 5458.5H1378.35V5463.5H1388.37V5458.5ZM1368.34 5458.5H1358.33V5463.5H1368.34V5458.5ZM1348.31 5458.5H1338.3V5463.5H1348.31V5458.5ZM1328.28 5458.5H1318.27V5463.5H1328.28V5458.5ZM1308.26 5458.5H1298.24V5463.5H1308.26V5458.5ZM1288.23 5458.5H1278.22V5463.5H1288.23V5458.5ZM1268.2 5458.5H1258.19V5463.5H1268.2V5458.5ZM1248.17 5458.5H1238.16V5463.5H1248.17V5458.5ZM1228.15 5458.5H1218.13V5463.5H1228.15V5458.5ZM1208.12 5458.5H1198.1V5463.5H1208.12V5458.5ZM1188.09 5458.5H1178.08V5463.5H1188.09V5458.5ZM1168.06 5458.5H1158.05V5463.5H1168.06V5458.5ZM1148.03 5458.5H1138.02V5463.5H1148.03V5458.5ZM1128.01 5458.5H1117.99V5463.5H1128.01V5458.5ZM1107.98 5458.5H1097.97V5463.5H1107.98V5458.5ZM1087.95 5458.5H1077.94V5463.5H1087.95V5458.5ZM1067.92 5458.5H1057.91V5463.5H1067.92V5458.5ZM1047.9 5458.5H1037.88V5463.5H1047.9V5458.5ZM1027.87 5458.5H1017.85V5463.5H1027.87V5458.5ZM1007.84 5458.5H997.827V5463.5H1007.84V5458.5ZM987.813 5458.5H977.799V5463.5H987.813V5458.5ZM967.785 5458.5H957.771V5463.5H967.785V5458.5ZM947.757 5458.5H937.743V5463.5H947.757V5458.5ZM927.729 5458.5H917.715V5463.5H927.729V5458.5ZM907.701 5458.5H897.687V5463.5H907.701V5458.5ZM887.674 5458.5H877.66V5463.5H887.674V5458.5ZM867.646 5458.5H857.632V5463.5H867.646V5458.5ZM847.618 5458.5H837.604V5463.5H847.618V5458.5ZM827.59 5458.5H817.576V5463.5H827.59V5458.5ZM807.562 5458.5H797.548V5463.5H807.562V5458.5ZM787.534 5458.5H777.52V5463.5H787.534V5458.5ZM767.507 5458.5H762.5V5463.5H767.507V5458.5ZM765 5461V5455.25H760V5461H765ZM765 5443.75V5432.25H760V5443.75H765ZM765 5420.75V5415H760V5420.75H765ZM765 5415V5410H760V5415H765ZM765 5400V5390H760V5400H765ZM765 5380V5370H760V5380H765ZM765 5360V5350H760V5360H765ZM765 5340V5330H760V5340H765ZM765 5320V5310H760V5320H765ZM765 5300V5290H760V5300H765ZM765 5280V5275H760V5280H765ZM765 5275V5270.19H760V5275H765ZM765 5260.56V5250.94H760V5260.56H765ZM765 5241.31V5231.69H760V5241.31H765ZM765 5222.06V5212.44H760V5222.06H765ZM765 5202.81V5193.19H760V5202.81H765ZM765 5183.56V5173.94H760V5183.56H765ZM765 5164.31V5154.69H760V5164.31H765ZM765 5145.06V5135.44H760V5145.06H765ZM765 5125.81V5116.19H760V5125.81H765ZM765 5106.56V5096.94H760V5106.56H765ZM765 5087.31V5077.69H760V5087.31H765ZM765 5068.06V5058.44H760V5068.06H765ZM765 5048.81V5044H760V5048.81H765ZM765 5044V5038.93H760V5044H765ZM765 5028.78V5018.63H760V5028.78H765ZM765 5008.49V4998.34H760V5008.49H765ZM765 4988.19V4978.04H760V4988.19H765ZM765 4967.9V4957.75H760V4967.9H765ZM765 4947.6V4937.46H760V4947.6H765ZM765 4927.31V4917.16H760V4927.31H765ZM765 4907.01V4896.87H760V4907.01H765ZM765 4886.72V4876.57H760V4886.72H765ZM765 4866.43V4856.28H760V4866.43H765ZM765 4846.13V4835.99H760V4846.13H765ZM765 4825.84V4815.69H760V4825.84H765ZM765 4805.54V4795.4H760V4805.54H765ZM765 4785.25V4775.1H760V4785.25H765ZM765 4764.96V4754.81H760V4764.96H765ZM765 4744.66V4734.51H760V4744.66H765ZM765 4724.37V4714.22H760V4724.37H765ZM765 4704.07V4699H760V4704.07H765ZM765 4699V4693.98H760V4699H765ZM765 4683.94V4673.9H760V4683.94H765ZM765 4663.87V4653.83H760V4663.87H765ZM765 4643.79V4633.75H760V4643.79H765ZM765 4623.71V4613.67H760V4623.71H765ZM765 4603.63V4593.6H760V4603.63H765ZM765 4583.56V4573.52H760V4583.56H765ZM765 4563.48V4553.44H760V4563.48H765ZM765 4543.4V4533.37H760V4543.4H765ZM765 4523.33V4513.29H760V4523.33H765ZM765 4503.25V4493.21H760V4503.25H765ZM765 4483.17V4473.13H760V4483.17H765ZM765 4463.1V4453.06H760V4463.1H765ZM765 4443.02V4438H760V4443.02H765ZM762.5 4435.5H757.4V4440.5H762.5V4435.5ZM747.2 4435.5H737V4440.5H747.2V4435.5ZM726.8 4435.5H716.6V4440.5H726.8V4435.5ZM706.4 4435.5H696.2V4440.5H706.4V4435.5ZM686 4435.5H675.8V4440.5H686V4435.5ZM665.6 4435.5H655.4V4440.5H665.6V4435.5ZM645.2 4435.5H635V4440.5H645.2V4435.5ZM624.8 4435.5H614.6V4440.5H624.8V4435.5ZM604.4 4435.5H594.2V4440.5H604.4V4435.5ZM584 4435.5H573.8V4440.5H584V4435.5ZM563.6 4435.5H558.5V4440.5H563.6V4435.5ZM558.5 4435.5H553.571V4440.5H558.5V4435.5ZM543.714 4435.5H533.857V4440.5H543.714V4435.5ZM524 4435.5H514.143V4440.5H524V4435.5ZM504.286 4435.5H494.429V4440.5H504.286V4435.5ZM484.571 4435.5H474.714V4440.5H484.571V4435.5ZM464.857 4435.5H455V4440.5H464.857V4435.5ZM445.143 4435.5H435.286V4440.5H445.143V4435.5ZM425.429 4435.5H415.571V4440.5H425.429V4435.5ZM405.714 4435.5H395.857V4440.5H405.714V4435.5ZM386 4435.5H376.143V4440.5H386V4435.5ZM366.286 4435.5H356.429V4440.5H366.286V4435.5ZM346.571 4435.5H336.714V4440.5H346.571V4435.5ZM326.857 4435.5H317V4440.5H326.857V4435.5ZM307.143 4435.5H297.286V4440.5H307.143V4435.5ZM287.429 4435.5H277.571V4440.5H287.429V4435.5ZM267.714 4435.5H257.857V4440.5H267.714V4435.5ZM248 4435.5H238.143V4440.5H248V4435.5ZM228.286 4435.5H218.428V4440.5H228.286V4435.5ZM208.571 4435.5H198.714V4440.5H208.571V4435.5ZM188.857 4435.5H179V4440.5H188.857V4435.5ZM169.143 4435.5H159.286V4440.5H169.143V4435.5ZM149.428 4435.5H139.571V4440.5H149.428V4435.5ZM129.714 4435.5H119.857V4440.5H129.714V4435.5ZM110 4435.5H100.143V4440.5H110V4435.5ZM90.2856 4435.5H80.4284V4440.5H90.2856V4435.5ZM70.5713 4435.5H60.7141V4440.5H70.5713V4435.5ZM50.857 4435.5H40.9999V4440.5H50.857V4435.5ZM31.1428 4435.5H21.2857V4440.5H31.1428V4435.5ZM11.4285 4435.5H6.5V4440.5H11.4285V4435.5ZM9 4438V4432.87H4V4438H9ZM9 4422.6V4412.34H4V4422.6H9ZM9 4402.08V4391.81H4V4402.08H9ZM9 4381.55V4371.28H4V4381.55H9ZM9 4361.02V4350.76H4V4361.02H9ZM9 4340.49V4330.23H4V4340.49H9ZM9 4319.97V4309.7H4V4319.97H9ZM9 4299.44V4289.17H4V4299.44H9ZM9 4278.91V4268.65H4V4278.91H9ZM9 4258.38V4248.12H4V4258.38H9ZM9 4237.85V4227.59H4V4237.85H9ZM9 4217.33V4207.06H4V4217.33H9ZM9 4196.8V4186.53H4V4196.8H9ZM9 4176.27V4166.01H4V4176.27H9ZM9 4155.74V4145.48H4V4155.74H9ZM9 4135.22V4124.95H4V4135.22H9ZM9 4114.69V4104.42H4V4114.69H9ZM9 4094.16V4083.9H4V4094.16H9ZM9 4073.63V4068.5H4V4073.63H9ZM9 4068.5V4063.63H4V4068.5H9ZM9 4053.9V4044.17H4V4053.9H9ZM9 4034.43V4024.7H4V4034.43H9ZM9 4014.97V4005.23H4V4014.97H9ZM9 3995.5V3985.77H4V3995.5H9ZM9 3976.03V3966.3H4V3976.03H9ZM9 3956.57V3946.83H4V3956.57H9ZM9 3937.1V3927.37H4V3937.1H9ZM9 3917.63V3907.9H4V3917.63H9ZM9 3898.17V3888.43H4V3898.17H9ZM9 3878.7V3868.97H4V3878.7H9ZM9 3859.23V3849.5H4V3859.23H9ZM9 3839.77V3830.03H4V3839.77H9ZM9 3820.3V3810.57H4V3820.3H9ZM9 3800.83V3791.1H4V3800.83H9ZM9 3781.37V3776.5H4V3781.37H9ZM9 3776.5V3771.66H4V3776.5H9ZM9 3761.98V3752.3H4V3761.98H9ZM9 3742.61V3732.93H4V3742.61H9ZM9 3723.25V3713.57H4V3723.25H9ZM9 3703.89V3694.2H4V3703.89H9ZM9 3684.52V3674.84H4V3684.52H9ZM9 3665.16V3655.48H4V3665.16H9ZM9 3645.8V3636.11H4V3645.8H9ZM9 3626.43V3616.75H4V3626.43H9ZM9 3607.07V3597.39H4V3607.07H9ZM9 3587.7V3578.02H4V3587.7H9ZM9 3568.34V3563.5H4V3568.34H9ZM9 3563.5V3558.61H4V3563.5H9ZM9 3548.84V3539.07H4V3548.84H9ZM9 3529.3V3519.52H4V3529.3H9ZM9 3509.75V3499.98H4V3509.75H9ZM9 3490.2V3480.43H4V3490.2H9ZM9 3470.66V3460.89H4V3470.66H9ZM9 3451.11V3441.34H4V3451.11H9ZM9 3431.57V3421.8H4V3431.57H9ZM9 3412.02V3402.25H4V3412.02H9ZM9 3392.48V3382.7H4V3392.48H9ZM9 3372.93V3363.16H4V3372.93H9ZM9 3353.39V3348.5H4V3353.39H9ZM9 3348.5V3343.37H4V3348.5H9ZM9 3333.12V3322.87H4V3333.12H9ZM9 3312.62V3302.37H4V3312.62H9ZM9 3292.12V3281.87H4V3292.12H9ZM9 3271.62V3261.38H4V3271.62H9ZM9 3251.13V3240.88H4V3251.13H9ZM9 3230.63V3220.38H4V3230.63H9ZM9 3210.13V3199.88H4V3210.13H9ZM9 3189.63V3179.37H4V3189.63H9ZM9 3169.13V3158.87H4V3169.13H9ZM9 3148.63V3138.37H4V3148.63H9ZM9 3128.13V3117.88H4V3128.13H9ZM9 3107.62V3097.38H4V3107.62H9ZM9 3087.12V3076.88H4V3087.12H9ZM9 3066.62V3056.38H4V3066.62H9ZM9 3046.12V3041H4V3046.12H9ZM6.5 3043.5H11.6562V3038.5H6.5V3043.5ZM21.9688 3043.5H32.2812V3038.5H21.9688V3043.5ZM42.5938 3043.5H52.9062V3038.5H42.5938V3043.5ZM63.2188 3043.5H73.5312V3038.5H63.2188V3043.5ZM83.8438 3043.5H94.1562V3038.5H83.8438V3043.5ZM104.469 3043.5H114.781V3038.5H104.469V3043.5ZM125.094 3043.5H135.406V3038.5H125.094V3043.5ZM145.719 3043.5H156.031V3038.5H145.719V3043.5ZM166.344 3043.5H171.5V3038.5H166.344V3043.5ZM171.5 3043.5H176.302V3038.5H171.5V3043.5ZM185.906 3043.5H195.51V3038.5H185.906V3043.5ZM205.115 3043.5H214.719V3038.5H205.115V3043.5ZM224.323 3043.5H233.927V3038.5H224.323V3043.5ZM243.531 3043.5H253.135V3038.5H243.531V3043.5ZM262.74 3043.5H272.344V3038.5H262.74V3043.5ZM281.948 3043.5H291.552V3038.5H281.948V3043.5ZM301.156 3043.5H310.76V3038.5H301.156V3043.5ZM320.365 3043.5H329.969V3038.5H320.365V3043.5ZM339.573 3043.5H349.177V3038.5H339.573V3043.5ZM358.781 3043.5H368.385V3038.5H358.781V3043.5ZM377.99 3043.5H387.594V3038.5H377.99V3043.5ZM397.198 3043.5H402V3038.5H397.198V3043.5ZM402 3043.5H407.109V3038.5H402V3043.5ZM417.328 3043.5H427.547V3038.5H417.328V3043.5ZM437.766 3043.5H447.984V3038.5H437.766V3043.5ZM458.203 3043.5H468.422V3038.5H458.203V3043.5ZM478.641 3043.5H488.859V3038.5H478.641V3043.5ZM499.078 3043.5H509.297V3038.5H499.078V3043.5ZM519.516 3043.5H529.734V3038.5H519.516V3043.5ZM539.953 3043.5H550.172V3038.5H539.953V3043.5ZM560.391 3043.5H570.609V3038.5H560.391V3043.5ZM580.828 3043.5H591.047V3038.5H580.828V3043.5ZM601.266 3043.5H611.484V3038.5H601.266V3043.5ZM621.703 3043.5H631.922V3038.5H621.703V3043.5ZM642.141 3043.5H652.359V3038.5H642.141V3043.5ZM662.578 3043.5H672.797V3038.5H662.578V3043.5ZM683.016 3043.5H693.234V3038.5H683.016V3043.5ZM703.453 3043.5H713.672V3038.5H703.453V3043.5ZM723.891 3043.5H729V3038.5H723.891V3043.5ZM729 3043.5H734.067V3038.5H729V3043.5ZM744.202 3043.5H754.337V3038.5H744.202V3043.5ZM764.471 3043.5H774.606V3038.5H764.471V3043.5ZM784.74 3043.5H794.875V3038.5H784.74V3043.5ZM805.01 3043.5H815.144V3038.5H805.01V3043.5ZM825.279 3043.5H835.413V3038.5H825.279V3043.5ZM845.548 3043.5H855.683V3038.5H845.548V3043.5ZM865.817 3043.5H875.952V3038.5H865.817V3043.5ZM886.087 3043.5H896.221V3038.5H886.087V3043.5ZM906.356 3043.5H916.49V3038.5H906.356V3043.5ZM926.625 3043.5H936.76V3038.5H926.625V3043.5ZM946.894 3043.5H957.029V3038.5H946.894V3043.5ZM967.163 3043.5H977.298V3038.5H967.163V3043.5ZM987.433 3043.5H992.5V3038.5H987.433V3043.5ZM992.5 3043.5H997.514V3038.5H992.5V3043.5ZM1007.54 3043.5H1017.57V3038.5H1007.54V3043.5ZM1027.6 3043.5H1037.62V3038.5H1027.6V3043.5ZM1047.65 3043.5H1057.68V3038.5H1047.65V3043.5ZM1067.71 3043.5H1077.74V3038.5H1067.71V3043.5ZM1087.76 3043.5H1097.79V3038.5H1087.76V3043.5ZM1107.82 3043.5H1117.85V3038.5H1107.82V3043.5ZM1127.88 3043.5H1137.9V3038.5H1127.88V3043.5ZM1147.93 3043.5H1157.96V3038.5H1147.93V3043.5ZM1167.99 3043.5H1173V3038.5H1167.99V3043.5ZM1173 3043.5H1178.27V3038.5H1173V3043.5ZM1188.8 3043.5H1199.33V3038.5H1188.8V3043.5ZM1209.86 3043.5H1220.39V3038.5H1209.86V3043.5ZM1230.92 3043.5H1241.45V3038.5H1230.92V3043.5ZM1251.98 3043.5H1262.52V3038.5H1251.98V3043.5ZM1273.05 3043.5H1283.58V3038.5H1273.05V3043.5ZM1294.11 3043.5H1304.64V3038.5H1294.11V3043.5ZM1315.17 3043.5H1325.7V3038.5H1315.17V3043.5ZM1336.23 3043.5H1341.5V3038.5H1336.23V3043.5ZM1344 3041V3035.99H1339V3041H1344ZM1344 3025.98V3015.97H1339V3025.98H1344ZM1344 3005.95V2995.94H1339V3005.95H1344ZM1344 2985.92V2975.91H1339V2985.92H1344ZM1344 2965.9V2955.88H1339V2965.9H1344ZM1344 2945.87V2935.85H1339V2945.87H1344ZM1344 2925.84V2915.83H1339V2925.84H1344ZM1344 2905.81V2895.8H1339V2905.81H1344ZM1344 2885.78V2875.77H1339V2885.78H1344ZM1344 2865.76V2855.74H1339V2865.76H1344ZM1344 2845.73V2835.72H1339V2845.73H1344ZM1344 2825.7V2815.69H1339V2825.7H1344ZM1344 2805.67V2795.66H1339V2805.67H1344ZM1344 2785.65V2775.63H1339V2785.65H1344ZM1344 2765.62V2755.6H1339V2765.62H1344ZM1344 2745.59V2735.58H1339V2745.59H1344ZM1344 2725.56V2715.55H1339V2725.56H1344ZM1344 2705.53V2695.52H1339V2705.53H1344ZM1344 2685.51V2680.5H1339V2685.51H1344ZM1344 2680.5V2675.52H1339V2680.5H1344ZM1344 2665.56V2655.6H1339V2665.56H1344ZM1344 2645.65V2635.69H1339V2645.65H1344ZM1344 2625.73V2615.77H1339V2625.73H1344ZM1344 2605.81V2595.85H1339V2605.81H1344ZM1344 2585.9V2575.94H1339V2585.9H1344ZM1344 2565.98V2556.02H1339V2565.98H1344ZM1344 2546.06V2536.1H1339V2546.06H1344ZM1344 2526.15V2516.19H1339V2526.15H1344ZM1344 2506.23V2496.27H1339V2506.23H1344ZM1344 2486.31V2476.35H1339V2486.31H1344ZM1344 2466.4V2456.44H1339V2466.4H1344ZM1344 2446.48V2441.5H1339V2446.48H1344ZM1344 2441.5V2436.47H1339V2441.5H1344ZM1344 2426.41V2416.34H1339V2426.41H1344ZM1344 2406.28V2396.22H1339V2406.28H1344ZM1344 2386.16V2376.09H1339V2386.16H1344ZM1344 2366.03V2355.97H1339V2366.03H1344ZM1344 2345.91V2335.84H1339V2345.91H1344ZM1344 2325.78V2315.72H1339V2325.78H1344ZM1344 2305.66V2295.59H1339V2305.66H1344ZM1344 2285.53V2275.47H1339V2285.53H1344ZM1344 2265.41V2255.34H1339V2265.41H1344ZM1344 2245.28V2235.22H1339V2245.28H1344ZM1344 2225.16V2215.09H1339V2225.16H1344ZM1344 2205.03V2200H1339V2205.03H1344ZM1344 2200V2194.8H1339V2200H1344ZM1344 2184.4V2174H1339V2184.4H1344ZM1344 2163.6V2153.2H1339V2163.6H1344ZM1344 2142.8V2132.4H1339V2142.8H1344ZM1344 2122V2111.6H1339V2122H1344ZM1344 2101.2V2090.8H1339V2101.2H1344ZM1344 2080.4V2070H1339V2080.4H1344ZM1344 2059.6V2049.2H1339V2059.6H1344ZM1344 2038.8V2028.4H1339V2038.8H1344ZM1344 2018V2007.6H1339V2018H1344ZM1344 1997.2V1992H1339V1997.2H1344ZM1344 1992V1986.86H1339V1992H1344ZM1344 1976.59V1966.32H1339V1976.59H1344ZM1344 1956.05V1945.77H1339V1956.05H1344ZM1344 1935.5V1925.23H1339V1935.5H1344ZM1344 1914.95V1904.68H1339V1914.95H1344ZM1344 1894.41V1884.14H1339V1894.41H1344ZM1344 1873.86V1863.59H1339V1873.86H1344ZM1344 1853.32V1843.05H1339V1853.32H1344ZM1344 1832.77V1822.5H1339V1832.77H1344ZM1344 1812.23V1801.95H1339V1812.23H1344ZM1344 1791.68V1781.41H1339V1791.68H1344ZM1344 1771.14V1766H1339V1771.14H1344ZM1341.5 1763.5H1336.5V1768.5H1341.5V1763.5ZM1326.5 1763.5H1316.5V1768.5H1326.5V1763.5ZM1306.5 1763.5H1296.5V1768.5H1306.5V1763.5ZM1286.5 1763.5H1276.5V1768.5H1286.5V1763.5ZM1266.5 1763.5H1256.5V1768.5H1266.5V1763.5ZM1246.5 1763.5H1236.5V1768.5H1246.5V1763.5ZM1226.5 1763.5H1216.5V1768.5H1226.5V1763.5ZM1206.5 1763.5H1196.5V1768.5H1206.5V1763.5ZM1186.5 1763.5H1176.5V1768.5H1186.5V1763.5ZM1166.5 1763.5H1156.5V1768.5H1166.5V1763.5ZM1146.5 1763.5H1136.5V1768.5H1146.5V1763.5ZM1126.5 1763.5H1116.5V1768.5H1126.5V1763.5ZM1106.5 1763.5H1096.5V1768.5H1106.5V1763.5ZM1086.5 1763.5H1076.5V1768.5H1086.5V1763.5ZM1066.5 1763.5H1061.5V1768.5H1066.5V1763.5ZM1061.5 1763.5H1056.47V1768.5H1061.5V1763.5ZM1046.41 1763.5H1036.34V1768.5H1046.41V1763.5ZM1026.28 1763.5H1016.22V1768.5H1026.28V1763.5ZM1006.16 1763.5H996.094V1768.5H1006.16V1763.5ZM986.031 1763.5H975.969V1768.5H986.031V1763.5ZM965.906 1763.5H955.844V1768.5H965.906V1763.5ZM945.781 1763.5H935.719V1768.5H945.781V1763.5ZM925.656 1763.5H915.594V1768.5H925.656V1763.5ZM905.531 1763.5H895.469V1768.5H905.531V1763.5ZM885.406 1763.5H875.344V1768.5H885.406V1763.5ZM865.281 1763.5H855.219V1768.5H865.281V1763.5ZM845.156 1763.5H835.094V1768.5H845.156V1763.5ZM825.031 1763.5H820V1768.5H825.031V1763.5ZM820 1763.5H814.833V1768.5H820V1763.5ZM804.5 1763.5H794.167V1768.5H804.5V1763.5ZM783.833 1763.5H773.5V1768.5H783.833V1763.5ZM763.167 1763.5H752.833V1768.5H763.167V1763.5ZM742.5 1763.5H732.167V1768.5H742.5V1763.5ZM721.833 1763.5H711.5V1768.5H721.833V1763.5ZM701.167 1763.5H690.833V1768.5H701.167V1763.5ZM680.5 1763.5H670.167V1768.5H680.5V1763.5ZM659.833 1763.5H649.5V1768.5H659.833V1763.5ZM639.167 1763.5H628.833V1768.5H639.167V1763.5ZM618.5 1763.5H608.167V1768.5H618.5V1763.5ZM597.833 1763.5H587.5V1768.5H597.833V1763.5ZM577.167 1763.5H572V1768.5H577.167V1763.5ZM572 1763.5H567.019V1768.5H572V1763.5ZM557.058 1763.5H547.096V1768.5H557.058V1763.5ZM537.135 1763.5H527.173V1768.5H537.135V1763.5ZM517.212 1763.5H507.25V1768.5H517.212V1763.5ZM497.288 1763.5H487.327V1768.5H497.288V1763.5ZM477.365 1763.5H467.404V1768.5H477.365V1763.5ZM457.442 1763.5H447.481V1768.5H457.442V1763.5ZM437.519 1763.5H427.558V1768.5H437.519V1763.5ZM417.596 1763.5H407.635V1768.5H417.596V1763.5ZM397.673 1763.5H387.712V1768.5H397.673V1763.5ZM377.75 1763.5H367.788V1768.5H377.75V1763.5ZM357.827 1763.5H347.865V1768.5H357.827V1763.5ZM337.904 1763.5H327.942V1768.5H337.904V1763.5ZM317.981 1763.5H313V1768.5H317.981V1763.5ZM313 1763.5H308.062V1768.5H313V1763.5ZM298.188 1763.5H288.312V1768.5H298.188V1763.5ZM278.438 1763.5H268.562V1768.5H278.438V1763.5ZM258.688 1763.5H248.812V1768.5H258.688V1763.5ZM238.938 1763.5H229.062V1768.5H238.938V1763.5ZM219.188 1763.5H209.312V1768.5H219.188V1763.5ZM199.438 1763.5H189.562V1768.5H199.438V1763.5ZM179.688 1763.5H169.812V1768.5H179.688V1763.5ZM159.938 1763.5H155V1768.5H159.938V1763.5ZM155 1763.5H150.475V1768.5H155V1763.5ZM141.425 1763.5H132.375V1768.5H141.425V1763.5ZM123.325 1763.5H114.275V1768.5H123.325V1763.5ZM105.225 1763.5H96.175V1768.5H105.225V1763.5ZM87.125 1763.5H78.075V1768.5H87.125V1763.5ZM69.025 1763.5H64.5V1768.5H69.025V1763.5ZM67 1766V1761.11H62V1766H67ZM67 1751.33V1741.55H62V1751.33H67ZM67 1731.77V1721.98H62V1731.77H67ZM67 1712.2V1702.42H62V1712.2H67ZM67 1692.64V1682.86H62V1692.64H67ZM67 1673.08V1663.3H62V1673.08H67ZM67 1653.52V1643.73H62V1653.52H67ZM67 1633.95V1624.17H62V1633.95H67ZM67 1614.39V1609.5H62V1614.39H67ZM67 1609.5V1604.47H62V1609.5H67ZM67 1594.42V1584.38H62V1594.42H67ZM67 1574.33V1564.28H62V1574.33H67ZM67 1554.23V1544.18H62V1554.23H67ZM67 1534.12V1524.07H62V1534.12H67ZM67 1514.02V1509H62V1514.02H67ZM67 1509V1503.96H62V1509H67ZM67 1493.89V1483.82H62V1493.89H67ZM67 1473.75V1463.68H62V1473.75H67ZM67 1453.61V1443.54H62V1453.61H67ZM67 1433.46V1423.39H62V1433.46H67ZM67 1413.32V1403.25H62V1413.32H67ZM67 1393.18V1383.11H62V1393.18H67ZM67 1373.04V1368H62V1373.04H67ZM67 1368V1363.02H62V1368H67ZM67 1353.05V1343.09H62V1353.05H67ZM67 1333.12V1323.16H62V1333.12H67ZM67 1313.2V1303.23H62V1313.2H67ZM67 1293.27V1283.3H62V1293.27H67ZM67 1273.34V1263.37H62V1273.34H67ZM67 1253.41V1243.45H62V1253.41H67ZM67 1233.48V1228.5H62V1233.48H67ZM67 1228.5V1223.7H62V1228.5H67ZM67 1214.09V1204.48H62V1214.09H67ZM67 1194.88V1185.27H62V1194.88H67ZM67 1175.66V1166.05H62V1175.66H67ZM67 1156.45V1146.84H62V1156.45H67ZM67 1137.23V1127.63H62V1137.23H67ZM67 1118.02V1108.41H62V1118.02H67ZM67 1098.8V1094H62V1098.8H67ZM67 1094V1089.07H62V1094H67ZM67 1079.21V1069.36H62V1079.21H67ZM67 1059.5V1049.64H62V1059.5H67ZM67 1039.79V1029.93H62V1039.79H67ZM67 1020.07V1010.21H62V1020.07H67ZM67 1000.36V990.5H62V1000.36H67ZM67 980.643V970.786H62V980.643H67ZM67 960.929V956H62V960.929H67ZM67 956V951.052H62V956H67ZM67 941.156V931.26H62V941.156H67ZM67 921.365V911.469H62V921.365H67ZM67 901.573V891.677H62V901.573H67ZM67 881.781V871.885H62V881.781H67ZM67 861.99V852.094H62V861.99H67ZM67 842.198V832.302H62V842.198H67ZM67 822.406V812.51H62V822.406H67ZM67 802.615V792.719H62V802.615H67ZM67 782.823V772.927H62V782.823H67ZM67 763.031V753.135H62V763.031H67ZM67 743.24V733.344H62V743.24H67ZM67 723.448V718.5H62V723.448H67ZM64.5 721H69.7159V716H64.5V721ZM80.1477 721H90.5795V716H80.1477V721ZM101.011 721H111.443V716H101.011V721ZM121.875 721H132.307V716H121.875V721ZM142.739 721H153.17V716H142.739V721ZM163.602 721H174.034V716H163.602V721ZM184.466 721H194.898V716H184.466V721ZM205.33 721H215.761V716H205.33V721ZM226.193 721H236.625V716H226.193V721ZM247.057 721H257.489V716H247.057V721ZM267.92 721H278.352V716H267.92V721ZM288.784 721H294V716H288.784V721ZM294 721H299.339V716H294V721ZM310.018 721H320.696V716H310.018V721ZM331.375 721H342.054V716H331.375V721ZM352.732 721H363.411V716H352.732V721ZM374.089 721H384.768V716H374.089V721ZM395.446 721H406.125V716H395.446V721ZM416.804 721H427.482V716H416.804V721ZM438.161 721H443.5V716H438.161V721ZM443.5 721H448.413V716H443.5V721ZM458.237 721H468.062V716H458.237V721ZM477.887 721H487.713V716H477.887V721ZM497.538 721H507.363V716H497.538V721ZM517.188 721H527.012V716H517.188V721ZM536.837 721H546.662V716H536.837V721ZM556.487 721H566.312V716H556.487V721ZM576.137 721H585.962V716H576.137V721ZM595.787 721H605.612V716H595.787V721ZM615.437 721H625.262V716H615.437V721ZM635.087 721H640V716H635.087V721ZM640 721H644.804V716H640V721ZM654.411 721H664.018V716H654.411V721ZM673.625 721H683.232V716H673.625V721ZM692.839 721H702.446V716H692.839V721ZM712.054 721H721.661V716H712.054V721ZM731.268 721H740.875V716H731.268V721ZM750.482 721H760.089V716H750.482V721ZM769.696 721H774.5V716H769.696V721ZM777 718.5V713.411H772V718.5H777ZM777 703.232V693.054H772V703.232H777ZM777 682.875V672.696H772V682.875H777ZM777 662.518V652.339H772V662.518H777ZM777 642.161V631.982H772V642.161H777ZM777 621.804V611.625H772V621.804H777ZM777 601.446V591.268H772V601.446H777ZM777 581.089V576H772V581.089H777ZM777 576V571.078H772V576H777ZM777 561.234V551.391H772V561.234H777ZM777 541.547V531.703H772V541.547H777ZM777 521.859V512.016H772V521.859H777ZM777 502.172V492.328H772V502.172H777ZM777 482.484V472.641H772V482.484H777ZM777 462.797V452.953H772V462.797H777ZM777 443.109V433.266H772V443.109H777ZM777 423.422V413.578H772V423.422H777ZM777 403.734V393.891H772V403.734H777ZM777 384.047V374.203H772V384.047H777ZM777 364.359V354.516H772V364.359H777ZM777 344.672V334.828H772V344.672H777ZM777 324.984V315.141H772V324.984H777ZM777 305.297V295.453H772V305.297H777ZM777 285.609V275.766H772V285.609H777ZM777 265.922V261H772V265.922H777ZM777 261V255.875H772V261H777ZM777 245.625V235.375H772V245.625H777ZM777 225.125V214.875H772V225.125H777ZM777 204.625V194.375H772V204.625H777ZM777 184.125V173.875H772V184.125H777ZM777 163.625V153.375H772V163.625H777ZM777 143.125V132.875H772V143.125H777ZM777 122.625V112.375H772V122.625H777ZM777 102.125V91.875H772V102.125H777ZM777 81.625V71.375H772V81.625H777ZM777 61.125V50.875H772V61.125H777ZM777 40.625V30.375H772V40.625H777ZM777 20.125V15H772V20.125H777Z" fill="black"/>
</g>
<defs>
<filter id="filter0_d_148_7" x="0" y="0.566406" width="1490" height="9466.87" filterUnits="userSpaceOnUse" color-interpolation-filters="sRGB">
<feFlood flood-opacity="0" result="BackgroundImageFix"/>
<feColorMatrix in="SourceAlpha" type="matrix" values="0 0 0 0 0 0 0 0 0 0 0 0 0 0 0 0 0 0 127 0" result="hardAlpha"/>
<feOffset dy="4"/>
<feGaussianBlur stdDeviation="2"/>
<feComposite in2="hardAlpha" operator="out"/>
<feColorMatrix type="matrix" values="0 0 0 0 0 0 0 0 0 0 0 0 0 0 0 0 0 0 0.25 0"/>
<feBlend mode="normal" in2="BackgroundImageFix" result="effect1_dropShadow_148_7"/>
<feBlend mode="normal" in="SourceGraphic" in2="effect1_dropShadow_148_7" result="shape"/>
</filter>
</defs>
</svg>
